<?xml version="1.0" standalone="no"?>
<!DOCTYPE svg PUBLIC "-//W3C//DTD SVG 20010904//EN"
 "http://www.w3.org/TR/2001/REC-SVG-20010904/DTD/svg10.dtd">
<svg version="1.0" xmlns="http://www.w3.org/2000/svg"
 width="1225.000000pt" height="1079.000000pt" viewBox="0 0 1225.000000 1079.000000"
 preserveAspectRatio="xMidYMid meet">

<g transform="translate(0.000000,1079.000000) scale(0.100000,-0.100000)"
fill="#000000" stroke="none">
<path d="M3210 9796 c-232 -81 -475 -275 -735 -586 -181 -216 -285 -384 -365
-587 -109 -276 -165 -632 -126 -798 20 -82 39 -115 66 -115 24 0 25 16 5 56
-41 83 -40 237 5 461 82 420 213 666 559 1053 148 165 228 236 382 337 254
166 429 189 637 84 34 -17 111 -68 170 -113 59 -45 136 -101 172 -124 36 -23
80 -54 99 -68 19 -14 41 -26 48 -26 26 0 12 36 -24 60 -21 14 -66 50 -100 81
-169 153 -344 262 -468 294 -91 23 -245 19 -325 -9z"/>
<path d="M6125 9433 c-71 -6 -446 -54 -585 -74 -244 -36 -574 -115 -795 -191
-240 -82 -1008 -399 -1206 -499 -203 -101 -615 -336 -841 -480 -356 -225 -664
-509 -1012 -934 -154 -187 -233 -311 -355 -555 -253 -509 -333 -829 -332
-1330 2 -509 53 -800 238 -1350 116 -347 199 -525 366 -790 135 -214 469 -633
641 -806 407 -406 1103 -868 1601 -1061 430 -167 1175 -324 1850 -390 221 -21
767 -24 985 -5 577 50 1121 164 1660 347 473 161 767 308 1075 539 307 230
681 588 894 855 315 396 649 1056 785 1551 59 218 106 644 106 965 -1 482
-102 1013 -265 1395 -84 197 -264 505 -390 665 -108 138 -310 321 -549 500
-958 712 -1275 910 -1872 1168 -83 36 -220 100 -305 142 -316 159 -452 184
-1135 212 -276 11 -401 -30 -653 -212 -111 -80 -144 -115 -106 -115 8 0 57 31
111 70 212 154 298 177 619 167 688 -22 782 -40 1140 -217 121 -59 276 -132
345 -161 168 -72 533 -254 650 -325 183 -111 467 -301 640 -430 96 -71 255
-188 354 -259 497 -361 671 -535 883 -883 235 -387 349 -737 429 -1322 22
-159 26 -686 6 -860 -32 -277 -75 -490 -138 -675 -85 -253 -290 -691 -443
-948 -150 -251 -294 -438 -506 -656 -473 -486 -902 -800 -1335 -977 -602 -245
-1325 -419 -1980 -476 -202 -17 -759 -17 -955 0 -472 42 -1039 147 -1540 283
-332 91 -578 201 -975 437 -262 155 -445 284 -670 471 -270 225 -330 287 -609
636 -304 380 -476 674 -609 1040 -155 429 -233 736 -274 1080 -17 144 -17 599
1 725 34 252 104 506 201 735 66 157 210 442 270 535 114 177 364 472 571 675
278 272 478 421 914 682 473 282 631 357 1420 673 497 199 728 261 1271 340
361 52 505 64 692 55 86 -3 152 -2 152 3 0 4 -33 16 -72 25 -69 16 -239 21
-363 10z"/>
<path d="M9565 9386 c-235 -35 -409 -86 -580 -172 -191 -97 -373 -232 -411
-305 -16 -32 -19 -75 -4 -84 5 -3 42 27 82 67 40 41 107 96 148 123 308 202
641 300 1020 299 182 -1 266 -11 445 -55 345 -85 507 -169 701 -363 168 -170
248 -378 247 -641 -1 -231 -55 -427 -227 -829 -31 -71 -56 -131 -56 -134 0
-11 99 106 133 157 49 73 117 206 155 302 80 201 105 322 106 509 0 122 -3
147 -32 255 -54 201 -115 306 -254 443 -155 153 -308 246 -518 316 -128 42
-276 81 -390 102 -116 21 -447 27 -565 10z"/>
<path d="M3930 7745 c0 -17 350 -413 442 -501 136 -130 409 -351 518 -420 88
-55 218 -124 236 -124 30 0 11 20 -89 88 -51 35 -376 291 -527 415 -41 34
-174 161 -295 283 -198 199 -285 278 -285 259z"/>
<path d="M7990 7577 c-19 -13 -47 -31 -62 -41 -35 -21 -36 -36 -2 -36 l26 0
-24 -29 c-23 -28 -125 -107 -370 -283 -70 -50 -172 -129 -225 -175 -164 -142
-251 -213 -348 -287 -165 -126 -335 -277 -335 -297 0 -27 15 -24 57 14 63 56
201 158 388 286 55 38 136 97 179 132 216 174 343 270 466 352 154 103 246
186 301 271 43 66 46 78 23 100 -21 21 -33 20 -74 -7z"/>
<path d="M4375 7035 c-26 -61 -53 -194 -70 -345 -9 -80 -20 -182 -26 -227 -23
-190 -49 -514 -48 -593 1 -89 12 -147 22 -120 16 43 28 92 37 155 5 39 18 129
29 202 29 189 55 445 88 879 6 84 -9 106 -32 49z"/>
<path d="M7432 6942 c-18 -35 -71 -295 -101 -497 -36 -239 -57 -695 -31 -695
11 0 30 64 30 104 0 16 18 130 40 255 68 391 118 779 105 820 -8 26 -33 34
-43 13z"/>
<path d="M5485 4763 c-116 -13 -207 -27 -315 -48 -69 -13 -163 -26 -210 -30
-134 -11 -425 -54 -542 -81 -205 -47 -437 -144 -585 -246 -166 -114 -310 -294
-415 -515 -122 -258 -137 -425 -54 -598 62 -133 163 -217 336 -282 159 -59
708 -191 1200 -288 74 -14 205 -42 290 -60 604 -132 909 -128 1540 20 107 25
303 70 435 100 368 83 673 178 836 261 215 108 437 310 517 469 54 107 65 164
57 293 -9 149 -21 194 -79 280 -67 101 -126 141 -453 307 -241 121 -309 151
-479 208 -321 107 -513 146 -789 161 -60 4 -240 13 -400 22 -159 8 -342 19
-405 24 -109 9 -420 11 -485 3z m620 -92 c55 -6 181 -15 280 -21 606 -36 740
-56 1060 -159 168 -54 314 -114 425 -173 52 -28 156 -83 231 -123 164 -87 211
-119 266 -178 58 -63 81 -114 94 -204 13 -92 4 -188 -22 -259 -27 -72 -104
-176 -190 -260 -234 -224 -511 -339 -1149 -474 -80 -17 -233 -53 -340 -79
-402 -101 -547 -123 -820 -123 -224 -1 -354 13 -600 61 -80 16 -206 41 -280
55 -532 101 -698 136 -945 197 -326 81 -418 109 -500 152 -121 65 -217 197
-234 323 -17 122 14 252 107 444 135 280 281 429 545 559 204 100 493 182 727
206 l55 6 -92 -35 c-92 -35 -143 -62 -143 -76 0 -11 69 6 181 45 171 59 393
108 594 129 71 7 647 -3 750 -13z"/>
<path d="M5029 4033 c-12 -30 1 -487 14 -500 15 -14 19 14 29 209 16 324 17
312 -9 316 -17 3 -26 -4 -34 -25z"/>
<path d="M6495 3878 c-20 -64 -26 -99 -40 -201 -20 -157 -20 -277 0 -277 8 0
19 16 24 38 35 128 78 409 68 437 -8 18 -46 20 -52 3z"/>
</g>
</svg>
